<svg width="151" height="79" viewBox="0 0 151 79" fill="none" xmlns="http://www.w3.org/2000/svg">
<path d="M35.3142 18.7438C32.1691 18.7438 29.8781 18.007 28.3055 16.4907L28.069 16.2619L27.8281 16.4907C26.2643 18.007 23.9777 18.7438 20.8194 18.7438H20.6135C14.4459 18.7438 11.3052 15.7267 11.3052 9.7816V0.823242H15.4666V10.0414C15.4666 13.2331 16.6361 14.7843 19.0454 14.7843H22.4314C24.8406 14.7843 26.0102 13.2331 26.0102 10.0492V0.823242H30.1672V10.0414C30.1672 11.2049 30.1672 14.7766 33.7241 14.7766H37.1364C40.689 14.7766 40.689 11.2126 40.689 10.0414V0.823242H44.8723V9.7816C44.8723 15.7267 41.7359 18.7438 35.5464 18.7438H35.3142Z" fill="white"/>
<path d="M28.0353 16.3049C28.045 16.2905 28.3177 16.111 28.3339 16.1024C26.9453 14.6171 26.0115 12.6517 26.0028 9.86339V10.0883C26.0028 13.2722 24.7938 14.8235 22.3889 14.8235H18.9985C16.5937 14.8235 15.4197 13.2722 15.4197 10.0883V0.870117H11.2627V9.82848C11.2627 15.7736 14.3991 18.7869 20.593 18.7869H20.7945C23.9396 18.7869 26.2306 18.05 27.8031 16.5376L28.044 16.3049H28.0353Z" fill="white"/>
<path d="M73.2504 18.8767V11.3222H54.143V18.8767H50.0386V0.824219H54.143V8.40586H73.2504V0.824219H77.3549V18.8767H73.2504Z" fill="white"/>
<path d="M86.6721 0.824219H82.5676V18.8767H86.6721V0.824219Z" fill="white"/>
<path d="M99.6859 18.8767V4.09732H91.2361V0.824219H112.429V4.09732H103.79V18.8767H99.6859Z" fill="white"/>
<path d="M116.998 18.8767V0.824219H140.061V4.01588H121.103V8.46016H140.061V11.3765H121.103V15.685H140.061V18.8767H116.998Z" fill="white"/>
<path d="M0.75 42.8132V43.0632H1H5.05626H5.30626V42.8132V38.1244H15.9766C18.2424 38.1244 20.7134 37.9418 22.6235 37.0092C23.584 36.5402 24.4092 35.8787 24.9926 34.9515C25.5762 34.0242 25.9073 32.8483 25.9073 31.3679C25.9073 29.8873 25.575 28.7113 24.99 27.784C24.4051 26.8569 23.5784 26.1954 22.6169 25.7265C20.7046 24.7939 18.2337 24.6113 15.9766 24.6113H1H0.75V24.8613V42.8132ZM16.4716 34.346H5.30626V28.4129H16.4716C17.608 28.4129 18.7699 28.5036 19.6423 28.9217C20.073 29.1281 20.4259 29.4111 20.6726 29.7977C20.9192 30.1841 21.0707 30.6912 21.0707 31.364C21.0707 32.0365 20.9183 32.5457 20.6701 32.9353C20.4217 33.3252 20.0666 33.6122 19.6344 33.8224C18.7598 34.2479 17.5976 34.346 16.4716 34.346Z" stroke="white" stroke-width="0.5"/>
<path d="M29.7522 42.8113V43.0613H30.0022H52.3248H52.5748V42.8113V39.5908V39.3408H52.3248H34.2778V35.628H52.3248H52.5748V35.378V32.4317V32.1817H52.3248H34.2778V28.3298H52.3248H52.5748V28.0798V24.8594V24.6094H52.3248H30.0022H29.7522V24.8594V42.8113Z" stroke="white" stroke-width="0.5"/>
<path d="M76.1868 42.9863L76.2603 43.0613H76.3653H83.7244H83.9744V42.8113V24.8594V24.6094H83.7244H79.6988H79.4488V24.8594V39.589L64.8305 24.6843L64.757 24.6094H64.6521H57.293H57.043V24.8594V42.8113V43.0613H57.293H61.3186H61.5686V42.8113V28.0816L76.1868 42.9863Z" stroke="white" stroke-width="0.5"/>
<path d="M98.8716 43.0613H98.8714C95.2089 43.0613 92.4397 42.3233 90.5838 40.7808C88.7186 39.2305 87.8193 36.9048 87.8193 33.8334C87.8193 30.7619 88.7186 28.4372 90.5838 26.8879C92.4397 25.3464 95.2089 24.6094 98.8714 24.6094H103.729C106.82 24.6094 109.266 25.134 111.065 26.2244C112.874 27.3206 114.007 28.9755 114.487 31.1815L114.553 31.4846H114.242H109.862H109.672L109.621 31.302C109.357 30.3577 108.855 29.6372 108.149 29.1502C107.44 28.6616 106.506 28.3955 105.359 28.3955H97.2551C96.1923 28.3955 95.0583 28.635 94.1911 29.4102C93.3293 30.1806 92.6866 31.5205 92.6866 33.8179C92.6866 36.1154 93.3294 37.4636 94.192 38.2419C95.0596 39.0247 96.1937 39.2713 97.2551 39.2713H105.346C106.792 39.2713 107.735 38.8978 108.37 38.3645C109.008 37.8285 109.363 37.1074 109.587 36.3602L109.641 36.1821H109.827H114.242H114.554L114.486 36.486C114 38.6895 112.867 40.3441 111.06 41.4408C109.263 42.5317 106.82 43.0574 103.73 43.0574L98.8716 43.0613ZM98.8716 43.0613L103.729 43.0574L98.8716 43.0613Z" stroke="white" stroke-width="0.5"/>
<path d="M123.025 24.8594V24.6094H122.775H118.75H118.5V24.8594V42.8113V43.0613H118.75H122.775H123.025V42.8113V24.8594Z" stroke="white" stroke-width="0.5"/>
<path d="M127.493 42.8113V43.0613H127.743H150.07H150.32V42.8113V39.5908V39.3408H150.07H132.049V24.8594V24.6094H131.799H127.743H127.493V24.8594V42.8113Z" stroke="white" stroke-width="0.5"/>
<path fill-rule="evenodd" clip-rule="evenodd" d="M63.0002 41.5335C64.1666 37.6403 64.2667 35.9538 63.4479 34.9551C63.1942 34.7122 62.8873 34.5339 62.5525 34.4349C62.0643 34.2283 61.8915 34.2605 60.9927 34.428L60.9562 34.4349C59.5954 34.686 58.0874 35.4336 55.8608 36.9645C51.1482 40.1102 44.1619 46.6048 39.956 51.7897C36.0682 56.4962 35.4968 58.6192 37.3759 60.4133C38.6365 61.5675 40.5804 62.2253 46.1176 63.3616C51.6548 64.4978 54.1642 65.2753 55.8961 66.5251C57.2981 67.488 57.9343 68.684 57.7399 69.8801C57.3629 72.0509 55.1951 74.4431 51.967 76.2371C50.4895 77.1172 48.8701 77.7246 47.1838 78.0312C45.4166 78.3601 44.8276 78.3362 44.2385 77.9355C44.0205 77.7442 43.9499 77.6246 43.8909 77.0265C43.8622 75.852 44.1559 74.6924 44.7392 73.6776C45.6303 72.0473 46.7187 70.5365 47.9791 69.1804C48.4362 68.6939 48.832 68.1515 49.1572 67.5657C49.1454 67.476 48.9451 67.3743 48.7507 67.3205C48.7326 67.313 48.7154 67.3057 48.6989 67.2987C48.6123 67.262 48.5456 67.2337 48.478 67.2312C48.2505 67.2227 48.0122 67.5056 46.9726 68.7394L46.9726 68.7395L46.8127 68.9292C45.5901 70.3027 44.5177 71.8065 43.6141 73.4144C42.8247 75.0949 42.5184 76.6737 42.9543 77.5648C43.3902 78.4558 44.6332 79 46.1765 79C47.5967 78.8678 48.9955 78.5585 50.3412 78.0791C52.4618 77.2435 54.4337 76.0618 56.1789 74.5806C57.2945 73.5464 58.1543 72.2597 58.6883 70.825C59.1418 69.306 58.5704 67.9305 57.0507 66.5969C55.1067 64.9224 52.3264 63.9177 45.7406 62.5602C40.115 61.4419 38.6542 60.9276 37.9237 59.9049C37.7022 59.6507 37.5374 59.3508 37.4407 59.0258C37.3997 58.361 37.5318 57.6969 37.8236 57.1002C39.0783 54.2296 44.7451 47.8008 50.4767 42.6996C55.3777 38.3101 59.4069 35.6608 61.6984 35.2302C62.582 35.0508 62.8235 35.1585 62.9119 35.6489C63.23 37.3951 61.7043 42.7714 59.0594 49.0507C57.304 53.1771 57.1803 54.2595 58.2111 54.6722C58.6588 54.8456 58.7413 54.7858 58.8532 54.6722C58.9651 54.5586 58.9533 54.5107 58.8532 54.439C58.7407 54.3438 58.6673 54.2094 58.647 54.0622C58.541 53.6137 59.0123 51.9272 59.8252 50.1331C61.0976 47.1191 62.099 44.3442 63.0002 41.5335ZM64.8201 67.0884C66.3806 65.816 67.8885 64.4789 69.34 63.0806C69.1998 64.0186 69.188 64.807 69.3319 65.2745C69.4484 65.6751 69.6777 66.0323 69.9917 66.3022C70.3058 66.5721 70.6907 66.7429 71.0991 66.7935C71.3249 66.7948 71.5488 66.7522 71.7588 66.6679C72.6189 66.3689 73.8088 64.8977 74.8338 62.99C75.1283 62.38 75.3109 62.0272 75.3109 62.1169V62.8584C75.4052 63.899 76.0414 64.3834 77.0369 64.1083C77.4706 63.9749 78.1223 63.555 78.8531 62.9566C78.6572 63.5509 78.6051 64.0588 78.7449 64.3967C78.997 64.7532 79.3475 65.0258 79.7522 65.1801C79.9946 65.2135 80.2403 65.2135 80.4827 65.1801C81.2308 65.0425 81.7786 64.5282 83.8934 62.1361C84.1729 61.8181 84.4358 61.516 84.6718 61.2449L84.6718 61.2449C85.301 60.522 85.7388 60.0191 85.7902 60.0191C85.8482 60.0191 85.8308 60.1963 85.8064 60.445L85.8064 60.4454C85.8011 60.4996 85.7954 60.5572 85.7902 60.6171C85.5369 62.1002 85.7195 62.8538 86.3792 63.2365C86.6467 63.3939 86.9492 63.4797 87.2583 63.486C87.5674 63.4922 87.873 63.4188 88.1464 63.2724C90.4412 61.7606 92.6407 60.1048 94.7322 58.3147C94.8014 58.2491 94.8701 58.1828 94.9382 58.116C94.839 58.6849 94.8259 59.2051 94.932 59.5954C94.9584 59.776 95.0253 59.9481 95.1274 60.0984C95.2295 60.2487 95.3642 60.3733 95.521 60.4626C95.7898 60.6313 96.0876 60.7469 96.3987 60.8034C97.1204 60.8703 97.843 60.6869 98.4487 60.2832C99.0492 59.8905 102.432 57.4226 103.927 56.2607C103.686 57.3622 103.664 58.5019 103.863 59.6129C103.971 59.8383 104.123 60.0393 104.309 60.2037C104.495 60.3681 104.712 60.4926 104.947 60.5698C105.784 60.7791 106.921 60.0076 107.893 58.5783C108.218 58.099 108.508 57.5952 108.759 57.0713C108.929 56.7603 109.071 56.551 109.247 56.5151C110.463 56.058 111.644 55.5124 112.782 54.8825C113.819 54.2845 114.873 53.4054 114.873 53.0884C114.848 52.9682 114.788 52.8581 114.702 52.7715C114.502 52.6698 114.366 52.6937 113.489 53.3695C112.322 54.1578 111.088 54.8383 109.801 55.4028L109.377 55.5702L109.407 55.2413C109.372 54.8026 109.307 54.367 109.212 53.9376L109.209 53.9214C109.053 53.062 109.016 52.8587 108.676 52.4665C107.71 51.1628 106.279 51.3422 104.965 52.8851C104.471 53.4681 104.166 54.1901 104.089 54.9535C103.876 55.1027 103.671 55.2628 103.473 55.4331C101.995 56.5873 98.2661 59.3263 97.677 59.6672C96.9407 60.1336 96.4223 60.3131 96.1631 60.1337C95.9039 59.9542 95.8745 59.7748 95.9628 59.0153C96.0784 58.0251 96.3656 57.0634 96.8111 56.1747C97.1763 55.4092 97.7654 54.6497 98.0776 54.5959C98.5135 54.5122 98.2661 54.1414 97.7359 53.962C97.6354 53.9182 97.5272 53.8957 97.4178 53.8957C97.3085 53.8957 97.2002 53.9182 97.0997 53.962C96.5249 54.3054 95.9257 55.2304 95.4915 56.2711C95.1721 56.4893 94.8814 56.7479 94.6262 57.0409C93.5659 58.2071 88.0817 62.3873 87.3453 62.6145L86.8328 62.7999L86.7621 62.3993C86.6208 61.6637 87.092 59.0324 87.9285 56.8436C88.765 54.6548 90.6441 50.319 91.9283 47.9987C93.2124 45.6783 96.4405 40.1226 97.2299 38.9565L98.1665 37.581L97.8543 37.3597C97.3654 36.9411 97.1238 37.1564 96.2579 38.3525C95.0974 39.9791 91.0329 47.1016 89.8547 49.5476C88.6884 51.8679 87.2569 55.2827 86.7445 56.7239C86.6056 57.264 86.3546 57.7677 86.0081 58.2011C85.8564 58.4149 85.6759 58.6061 85.4721 58.7692C85.4342 58.7747 85.4062 58.6236 85.3699 58.4272L85.3699 58.4272L85.3601 58.3745C85.3396 58.2468 85.2893 58.1259 85.2135 58.0219C85.1377 57.9179 85.0385 57.8338 84.9242 57.7765C84.7325 57.6274 84.5085 57.5268 84.2708 57.4831C84.0332 57.4395 83.7887 57.4539 83.5576 57.5253C83.1063 57.6067 82.6862 57.8137 82.3441 58.1233C82.0519 58.3576 81.7646 58.62 81.4874 58.9017C81.3472 58.969 81.2018 59.1205 80.9778 59.4078C79.7391 60.8887 78.3267 62.2102 76.7718 63.3428C76.4773 63.4864 76.4773 63.4864 76.4184 63.1335C76.3891 62.0046 76.5059 60.8766 76.7659 59.7786C77.0192 58.4211 77.0134 58.14 76.6246 57.9845C76.0178 57.6795 75.9059 57.7931 75.0046 59.8623C73.5732 63.2771 72.5835 64.8499 71.588 65.6393C71.0343 66.1117 70.7692 66.1596 70.5748 65.8247C70.1801 65.1609 70.2449 63.7615 70.7692 61.9016C71.2346 60.1972 71.5173 59.4975 71.7824 59.4437C72.3126 59.348 71.9297 58.6244 71.3406 58.5108C70.8693 58.4151 70.7397 58.4868 70.4158 59.1925C70.1317 59.9008 69.891 60.639 69.7022 61.3535C69.6424 61.4141 69.5784 61.4836 69.5091 61.5627C69.3933 61.6602 69.2064 61.8456 68.979 62.0712L68.979 62.0713L68.9789 62.0713L68.9788 62.0715C68.6625 62.3852 68.268 62.7767 67.8774 63.1175C67.2058 63.7036 66.3163 64.5648 65.851 65.0252C65.0981 65.8092 64.2095 66.4457 63.2296 66.9031L62.7525 67.0406L62.6465 66.4426C62.5581 65.6771 62.6406 64.8757 63.1118 63.2132C63.6373 61.3759 64.2868 59.5776 65.0557 57.831L65.4975 56.7784L66.876 56.3299C67.416 56.1568 67.9402 55.9367 68.4429 55.6721L68.6844 55.4867L68.3604 55.2235L68.3401 55.212C68.0517 55.0484 67.9916 55.0143 67.3237 55.2774C66.6403 55.5465 66.0159 55.702 66.0159 55.6123C66.1301 55.1932 66.2698 54.7818 66.4342 54.3803C67.1057 52.5862 67.3826 51.3423 67.3296 50.7921C67.2648 50.4393 67.253 50.3915 66.8171 50.242L66.817 50.242C66.5599 50.1537 66.4544 50.1176 66.3918 50.1543C66.3483 50.1799 66.3256 50.2406 66.2869 50.3436L66.2869 50.3436L66.2869 50.3436C66.208 50.4895 66.1751 50.6565 66.1927 50.822C66.2928 51.3603 64.6375 56.0668 64.3135 56.2641L63.1354 56.5751C61.5744 57.0057 61.4153 57.1313 61.9278 57.4482C62.1811 57.5858 62.3225 57.6097 63.1059 57.4183L64.0308 57.2449L63.212 59.2483C61.9867 62.2982 61.38 64.7262 61.4919 66.0957C61.5096 66.4281 61.6228 66.7479 61.8175 67.0157C62.0122 67.2836 62.2799 67.4876 62.5875 67.6028C62.9736 67.6972 63.3759 67.7 63.7631 67.6107C64.1503 67.5215 64.5121 67.3428 64.8201 67.0884ZM105.332 55.0959C105.397 55.0238 105.42 54.9744 105.41 54.9329C105.407 54.9226 105.403 54.9129 105.396 54.9033C105.463 54.7171 105.539 54.5344 105.625 54.3562C105.677 54.1857 105.707 54.0086 105.713 53.83C105.684 53.6984 105.866 53.4293 106.208 53.0466C107.374 51.9462 107.804 52.0479 108.211 53.5489C108.377 54.2988 108.363 55.0783 108.169 55.8214C108.075 56.0724 107.946 56.0965 107.241 56.2277L107.239 56.2281C106.314 56.4015 105.56 56.264 105.312 55.8932C105.189 55.7556 105.212 55.5882 105.312 55.1576C105.319 55.137 105.325 55.1164 105.332 55.0959ZM84.8536 58.9845L85.2011 59.152L83.3043 61.263C82.2911 62.4292 81.2249 63.6013 80.948 63.8345C80.7235 64.0819 80.4479 64.2759 80.141 64.4027L79.8052 64.5581L79.7699 64.1036C79.7287 62.6325 82.4266 58.9307 84.0406 58.2609C84.3293 58.1114 84.3293 58.1114 84.3941 58.4702C84.4018 58.5961 84.4516 58.7156 84.5351 58.8091C84.6185 58.9025 84.7309 58.9644 84.8536 58.9845ZM97.571 52.3533C97.0997 52.0244 97.0644 51.5639 97.4355 50.8522C97.6063 50.5413 98.054 50.4994 98.4369 50.8522C98.649 51.0017 98.7668 51.1632 98.7373 51.2589C98.7167 51.3655 98.7167 51.4752 98.7373 51.5818C98.7032 51.7745 98.6259 51.9566 98.5115 52.1142C98.3972 52.2718 98.2487 52.4006 98.0776 52.4908C97.8985 52.5013 97.721 52.4531 97.571 52.3533ZM106.997 57.0175C107.175 57.0015 107.354 57.0136 107.527 57.0534C107.639 57.173 106.685 58.5544 106.22 59.0149C105.754 59.4754 105.065 59.9239 104.959 59.8521C104.753 59.7086 104.706 58.4647 104.871 57.0952L104.953 56.569L105.737 56.8381C106.15 56.9402 106.572 57.0003 106.997 57.0175Z" fill="url(#paint0_linear_2_11)"/>
<defs>
<linearGradient id="paint0_linear_2_11" x1="32.1868" y1="81.8617" x2="130.963" y2="58.9718" gradientUnits="userSpaceOnUse">
<stop stop-color="#4FAEED"/>
<stop offset="0.213542" stop-color="#4E72D9"/>
<stop offset="0.40625" stop-color="#5959D0"/>
<stop offset="0.567708" stop-color="#7E4DBF"/>
<stop offset="0.770833" stop-color="#C04EA5"/>
<stop offset="1" stop-color="#ED7A4F"/>
</linearGradient>
</defs>
</svg>
